<?xml version="1.0" encoding="UTF-8" standalone="no"?>
<svg
   xmlns:dc="http://purl.org/dc/elements/1.1/"
   xmlns:cc="http://creativecommons.org/ns#"
   xmlns:rdf="http://www.w3.org/1999/02/22-rdf-syntax-ns#"
   xmlns:svg="http://www.w3.org/2000/svg"
   xmlns="http://www.w3.org/2000/svg"
   viewBox="0 0 2560 2560"
   height="2560"
   width="2560"
   xml:space="preserve"
   id="svg2"
   version="1.1"><metadata
     id="metadata8"><rdf:RDF><cc:Work
         rdf:about=""><dc:format>image/svg+xml</dc:format><dc:type
           rdf:resource="http://purl.org/dc/dcmitype/StillImage" /></cc:Work></rdf:RDF></metadata><defs
     id="defs6"><clipPath
       id="clipPath18"
       clipPathUnits="userSpaceOnUse"><path
         id="path16"
         d="M 0,1920 H 1920 V 0 H 0 Z" /></clipPath><clipPath
       id="clipPath26"
       clipPathUnits="userSpaceOnUse"><path
         id="path24"
         d="M 0,1920 H 1920 V 0 H 0 Z" /></clipPath></defs><g
     transform="matrix(1.3333333,0,0,-1.3333333,0,2560)"
     id="g10"><g
       id="g12"><g
         clip-path="url(#clipPath18)"
         id="g14"><g
           id="g20"><g
             id="g22" /><g
             id="g32"><g
               style="opacity:0"
               id="g30"
               clip-path="url(#clipPath26)"><path
                 id="path28"
                 style="fill:#ffffff;fill-opacity:1;fill-rule:nonzero;stroke:none"
                 d="M 1920,0 H 0 v 1920 h 1920 z" /></g></g></g><g
           transform="translate(952.7822,439.626)"
           id="g34"><path
             id="path36"
             style="fill:#ff0000;fill-opacity:1;fill-rule:nonzero;stroke:none"
             d="m 0,0 c -88.049,203.913 -570.351,378.697 -564.857,736.21 5.368,349.382 490.788,420.399 572.947,88.489 88.656,330.447 572.602,251.128 571.115,-98.287 C 577.685,368.865 92.035,202.371 0,0 m 8.18,833.397 c -95.076,340.9 -654.317,268.499 -660.073,-90.248 -5.89,-367.095 550.061,-547.085 651.767,-756.562 105.798,207.7 665.187,378.138 666.499,745.272 1.283,358.786 -556.444,440.752 -658.193,101.538" /></g></g></g></g></svg>
